<?xml version="1.0" encoding="UTF-8"?>
<svg id="Objects" xmlns="http://www.w3.org/2000/svg" viewBox="0 0 2200 2200">
  <path d="m2143,57c-76-76-199.24-76-275.24,0l-767.76,767.76L332.24,57c-76-76-199.24-76-275.24,0-76,76.01-76,199.24,0,275.24l767.76,767.76L57,1867.75c-76,76.01-76,199.23,0,275.24,38.01,38.01,87.8,57,137.62,57s99.62-19.01,137.62-57l767.76-767.76,767.76,767.76c38,38,87.81,57,137.62,57s99.62-19,137.62-57c76-76.01,76-199.23,0-275.24l-767.76-767.76,767.76-767.76c76-76,76-199.23,0-275.24Z"/>
</svg>