<?xml version="1.0" encoding="utf-8"?>
<!-- Generator: Adobe Illustrator 27.6.1, SVG Export Plug-In . SVG Version: 6.00 Build 0)  -->
<svg version="1.1" id="Слой_1" xmlns="http://www.w3.org/2000/svg" xmlns:xlink="http://www.w3.org/1999/xlink" x="0px" y="0px"
	 viewBox="0 0 22 22" style="enable-background:new 0 0 22 22;" xml:space="preserve">
<style type="text/css">
	.st0{fill:#4285F4;}
	.st1{fill:#34A853;}
	.st2{fill:#FBBC05;}
	.st3{fill:#EA4335;}
	.st4{fill:none;}
</style>
<path class="st0" d="M21.8,11.2c0-0.8-0.1-1.5-0.2-2.2H11.2v4.3h5.9c-0.3,1.4-1,2.5-2.2,3.3v2.8h3.6C20.6,17.4,21.8,14.6,21.8,11.2z
	"/>
<path class="st1" d="M11.2,22c3,0,5.5-1,7.3-2.7l-3.6-2.8c-1,0.7-2.2,1.1-3.7,1.1c-2.9,0-5.3-1.9-6.2-4.5H1.4v2.8
	C3.2,19.5,6.9,22,11.2,22z"/>
<path class="st2" d="M5.1,13.1c-0.2-0.7-0.3-1.4-0.3-2.1s0.1-1.4,0.3-2.1V6.1H1.4C0.7,7.6,0.2,9.2,0.2,11s0.4,3.4,1.2,4.9l2.8-2.2
	C4.2,13.7,5.1,13.1,5.1,13.1z"/>
<path class="st3" d="M11.2,4.4c1.6,0,3.1,0.6,4.2,1.6l3.1-3.2C16.7,1.1,14.2,0,11.2,0c-4.3,0-8,2.5-9.8,6.1l3.7,2.8
	C5.9,6.3,8.4,4.4,11.2,4.4z"/>
<path class="st4" d="M0.2,0h22v22h-22V0z"/>
</svg>
